<svg width="48" height="48" viewBox="0 0 48 48" fill="none" xmlns="http://www.w3.org/2000/svg">
<rect width="48" height="48" rx="7" fill="#FFD2E8"/>
<path fill-rule="evenodd" clip-rule="evenodd" d="M16 29V16.8921L25.4367 23.3262C25.7765 23.5579 26.2235 23.5579 26.5633 23.3262L36 16.8921V29H16ZM26 21.2897L18.2418 16H33.7582L26 21.2897ZM15.5 14C14.6716 14 14 14.6716 14 15.5V29.5C14 30.3284 14.6716 31 15.5 31H36.5C37.3284 31 38 30.3284 38 29.5V15.5C38 14.6716 37.3284 14 36.5 14H15.5ZM12 18H10V35H34V33H12V18Z" fill="black"/>
</svg>
